<svg width="16" height="16" viewBox="0 0 16 16" fill="none" xmlns="http://www.w3.org/2000/svg">
<path d="M12.3333 14C13.622 14 14.6667 12.9553 14.6667 11.6667C14.6667 10.378 13.622 9.33334 12.3333 9.33334C11.0447 9.33334 10 10.378 10 11.6667C10 12.9553 11.0447 14 12.3333 14Z" stroke="#111827" stroke-width="1.33333" stroke-linecap="round" stroke-linejoin="round"/>
<path d="M3.66668 14C4.95534 14 6.00001 12.9553 6.00001 11.6667C6.00001 10.378 4.95534 9.33334 3.66668 9.33334C2.37801 9.33334 1.33334 10.378 1.33334 11.6667C1.33334 12.9553 2.37801 14 3.66668 14Z" stroke="#111827" stroke-width="1.33333" stroke-linecap="round" stroke-linejoin="round"/>
<path d="M10 3.99999C10.3682 3.99999 10.6667 3.70151 10.6667 3.33332C10.6667 2.96513 10.3682 2.66666 10 2.66666C9.63182 2.66666 9.33334 2.96513 9.33334 3.33332C9.33334 3.70151 9.63182 3.99999 10 3.99999Z" stroke="#111827" stroke-width="1.33333" stroke-linecap="round" stroke-linejoin="round"/>
<path d="M8 11.6667V9.33334L6 7.33334L8.66667 5.33334L10 7.33334H11.3333" stroke="#111827" stroke-width="1.33333" stroke-linecap="round" stroke-linejoin="round"/>
</svg>
