<svg width="16" height="16" viewBox="0 0 16 16" fill="none" xmlns="http://www.w3.org/2000/svg">
<path d="M8.00003 3.33335C8.00082 3.0667 7.94827 2.80259 7.84549 2.55655C7.74271 2.3105 7.59177 2.0875 7.40154 1.90064C7.21131 1.71379 6.98564 1.56686 6.7378 1.4685C6.48996 1.37014 6.22495 1.32233 5.95836 1.32789C5.69177 1.33344 5.42898 1.39225 5.18545 1.50086C4.94193 1.60946 4.72257 1.76566 4.5403 1.96028C4.35802 2.1549 4.2165 2.384 4.12406 2.63411C4.03162 2.88423 3.99013 3.1503 4.00203 3.41668C3.61016 3.51744 3.24636 3.70605 2.93818 3.96822C2.63 4.2304 2.38552 4.55926 2.22326 4.92991C2.06099 5.30056 1.9852 5.70328 2.00162 6.10756C2.01804 6.51183 2.12624 6.90708 2.31803 7.26335C1.98082 7.5373 1.71565 7.8895 1.54559 8.2893C1.37553 8.68911 1.30573 9.12441 1.34227 9.55734C1.37881 9.99027 1.52057 10.4077 1.75523 10.7734C1.98989 11.139 2.31034 11.4418 2.6887 11.6553C2.64197 12.0168 2.66986 12.3841 2.77062 12.7344C2.87139 13.0847 3.04289 13.4106 3.27455 13.692C3.50621 13.9734 3.7931 14.2043 4.11751 14.3705C4.44191 14.5367 4.79695 14.6346 5.16068 14.6582C5.52441 14.6818 5.88912 14.6306 6.23229 14.5078C6.57545 14.3849 6.88978 14.193 7.15587 13.9439C7.42196 13.6947 7.63415 13.3937 7.77934 13.0594C7.92453 12.7251 7.99964 12.3645 8.00003 12V3.33335Z" stroke="#9CA3AF" stroke-width="1.33333" stroke-linecap="round" stroke-linejoin="round"/>
<path d="M8.00001 3.33335C7.99922 3.0667 8.05177 2.80259 8.15455 2.55655C8.25733 2.3105 8.40827 2.0875 8.5985 1.90064C8.78872 1.71379 9.01439 1.56686 9.26224 1.4685C9.51008 1.37014 9.77509 1.32233 10.0417 1.32789C10.3083 1.33344 10.5711 1.39225 10.8146 1.50086C11.0581 1.60946 11.2775 1.76566 11.4597 1.96028C11.642 2.1549 11.7835 2.384 11.876 2.63411C11.9684 2.88423 12.0099 3.1503 11.998 3.41668C12.3899 3.51744 12.7537 3.70605 13.0619 3.96822C13.37 4.2304 13.6145 4.55926 13.7768 4.92991C13.939 5.30056 14.0148 5.70328 13.9984 6.10756C13.982 6.51183 13.8738 6.90708 13.682 7.26335C14.0192 7.5373 14.2844 7.8895 14.4545 8.2893C14.6245 8.68911 14.6943 9.12441 14.6578 9.55734C14.6212 9.99027 14.4795 10.4077 14.2448 10.7734C14.0101 11.139 13.6897 11.4418 13.3113 11.6553C13.3581 12.0168 13.3302 12.3841 13.2294 12.7344C13.1287 13.0847 12.9571 13.4106 12.7255 13.692C12.4938 13.9734 12.2069 14.2043 11.8825 14.3705C11.5581 14.5367 11.2031 14.6346 10.8394 14.6582C10.4756 14.6818 10.1109 14.6306 9.76775 14.5078C9.42459 14.3849 9.11025 14.193 8.84417 13.9439C8.57808 13.6947 8.36589 13.3937 8.2207 13.0594C8.07551 12.7251 8.0004 12.3645 8.00001 12V3.33335Z" stroke="#9CA3AF" stroke-width="1.33333" stroke-linecap="round" stroke-linejoin="round"/>
<path d="M10 8.66667C9.4403 8.46977 8.95155 8.11133 8.59555 7.63667C8.23956 7.16201 8.0323 6.59245 8 6C7.9677 6.59245 7.76045 7.16201 7.40445 7.63667C7.04845 8.11133 6.5597 8.46977 6 8.66667" stroke="#9CA3AF" stroke-width="1.33333" stroke-linecap="round" stroke-linejoin="round"/>
<path d="M11.7327 4.33332C11.894 4.05371 11.9853 3.7392 11.9987 3.41666" stroke="#9CA3AF" stroke-width="1.33333" stroke-linecap="round" stroke-linejoin="round"/>
<path d="M4.00201 3.41666C4.0152 3.73915 4.10623 4.05365 4.26735 4.33332" stroke="#9CA3AF" stroke-width="1.33333" stroke-linecap="round" stroke-linejoin="round"/>
<path d="M2.31799 7.264C2.43995 7.16467 2.57046 7.07633 2.70799 7" stroke="#9CA3AF" stroke-width="1.33333" stroke-linecap="round" stroke-linejoin="round"/>
<path d="M13.292 7C13.4295 7.07633 13.56 7.16467 13.682 7.264" stroke="#9CA3AF" stroke-width="1.33333" stroke-linecap="round" stroke-linejoin="round"/>
<path d="M3.99999 12C3.54055 12.0002 3.08884 11.8817 2.68866 11.656" stroke="#9CA3AF" stroke-width="1.33333" stroke-linecap="round" stroke-linejoin="round"/>
<path d="M13.3113 11.656C12.9112 11.8817 12.4594 12.0002 12 12" stroke="#9CA3AF" stroke-width="1.33333" stroke-linecap="round" stroke-linejoin="round"/>
</svg>
