<svg width="20" height="20" viewBox="0 0 20 20" fill="none" xmlns="http://www.w3.org/2000/svg">
<path d="M15.4167 17.5C17.0275 17.5 18.3333 16.1942 18.3333 14.5834C18.3333 12.9725 17.0275 11.6667 15.4167 11.6667C13.8058 11.6667 12.5 12.9725 12.5 14.5834C12.5 16.1942 13.8058 17.5 15.4167 17.5Z" stroke="#DC2626" stroke-width="1.66667" stroke-linecap="round" stroke-linejoin="round"/>
<path d="M4.58329 17.5C6.19412 17.5 7.49996 16.1942 7.49996 14.5834C7.49996 12.9725 6.19412 11.6667 4.58329 11.6667C2.97246 11.6667 1.66663 12.9725 1.66663 14.5834C1.66663 16.1942 2.97246 17.5 4.58329 17.5Z" stroke="#DC2626" stroke-width="1.66667" stroke-linecap="round" stroke-linejoin="round"/>
<path d="M12.5 4.99998C12.9602 4.99998 13.3333 4.62688 13.3333 4.16665C13.3333 3.70641 12.9602 3.33331 12.5 3.33331C12.0397 3.33331 11.6666 3.70641 11.6666 4.16665C11.6666 4.62688 12.0397 4.99998 12.5 4.99998Z" stroke="#DC2626" stroke-width="1.66667" stroke-linecap="round" stroke-linejoin="round"/>
<path d="M10 14.5834V11.6667L7.5 9.16669L10.8333 6.66669L12.5 9.16669H14.1667" stroke="#DC2626" stroke-width="1.66667" stroke-linecap="round" stroke-linejoin="round"/>
</svg>
