<svg width="40" height="40" viewBox="0 0 40 40" fill="none" xmlns="http://www.w3.org/2000/svg">
<path d="M30.8333 34.9999C34.055 34.9999 36.6667 32.3882 36.6667 29.1666C36.6667 25.9449 34.055 23.3333 30.8333 23.3333C27.6117 23.3333 25 25.9449 25 29.1666C25 32.3882 27.6117 34.9999 30.8333 34.9999Z" stroke="#DC2626" stroke-width="3.33333" stroke-linecap="round" stroke-linejoin="round"/>
<path d="M9.16634 34.9999C12.388 34.9999 14.9997 32.3882 14.9997 29.1666C14.9997 25.9449 12.388 23.3333 9.16634 23.3333C5.94468 23.3333 3.33301 25.9449 3.33301 29.1666C3.33301 32.3882 5.94468 34.9999 9.16634 34.9999Z" stroke="#DC2626" stroke-width="3.33333" stroke-linecap="round" stroke-linejoin="round"/>
<path d="M24.9997 10.0001C25.9201 10.0001 26.6663 9.25389 26.6663 8.33341C26.6663 7.41294 25.9201 6.66675 24.9997 6.66675C24.0792 6.66675 23.333 7.41294 23.333 8.33341C23.333 9.25389 24.0792 10.0001 24.9997 10.0001Z" stroke="#DC2626" stroke-width="3.33333" stroke-linecap="round" stroke-linejoin="round"/>
<path d="M20 29.1666V23.3333L15 18.3333L21.6667 13.3333L25 18.3333H28.3333" stroke="#DC2626" stroke-width="3.33333" stroke-linecap="round" stroke-linejoin="round"/>
</svg>
