<svg width="12" height="12" viewBox="0 0 12 12" fill="none" xmlns="http://www.w3.org/2000/svg">
<g clip-path="url(#clip0_79_3127)">
<path d="M7.34968 3.15011C7.25807 3.24358 7.20675 3.36924 7.20675 3.50011C7.20675 3.63099 7.25807 3.75665 7.34968 3.85011L8.14968 4.65011C8.24315 4.74173 8.36881 4.79304 8.49968 4.79304C8.63056 4.79304 8.75622 4.74173 8.84968 4.65011L10.7347 2.76511C10.9861 3.32071 11.0622 3.93973 10.9529 4.53968C10.8436 5.13964 10.554 5.69203 10.1228 6.12325C9.69161 6.55447 9.13921 6.84403 8.53926 6.95334C7.9393 7.06265 7.32028 6.98653 6.76468 6.73511L3.30968 10.1901C3.11077 10.389 2.84099 10.5008 2.55968 10.5008C2.27838 10.5008 2.0086 10.389 1.80968 10.1901C1.61077 9.9912 1.49902 9.72142 1.49902 9.44011C1.49902 9.15881 1.61077 8.88902 1.80968 8.69011L5.26468 5.23511C5.01327 4.67952 4.93714 4.06049 5.04645 3.46054C5.15577 2.86058 5.44533 2.30819 5.87654 1.87697C6.30776 1.44576 6.86016 1.1562 7.46011 1.04688C8.06007 0.93757 8.67909 1.01369 9.23468 1.26511L7.35468 3.14511L7.34968 3.15011Z" stroke="white" stroke-linecap="round" stroke-linejoin="round"/>
</g>
<defs>
<clipPath id="clip0_79_3127">
<rect width="12" height="12" fill="white"/>
</clipPath>
</defs>
</svg>
