<svg width="16" height="16" viewBox="0 0 16 16" fill="none" xmlns="http://www.w3.org/2000/svg">
<path d="M2.66699 1.33325V14.6666L4.00033 13.9999L5.33366 14.6666L6.66699 13.9999L8.00033 14.6666L9.33366 13.9999L10.667 14.6666L12.0003 13.9999L13.3337 14.6666V1.33325L12.0003 1.99992L10.667 1.33325L9.33366 1.99992L8.00033 1.33325L6.66699 1.99992L5.33366 1.33325L4.00033 1.99992L2.66699 1.33325Z" stroke="white" stroke-width="1.33333" stroke-linecap="round" stroke-linejoin="round"/>
<path d="M10.6663 5.33325H6.66634C6.31272 5.33325 5.97358 5.47373 5.72353 5.72378C5.47348 5.97383 5.33301 6.31296 5.33301 6.66659C5.33301 7.02021 5.47348 7.35935 5.72353 7.60939C5.97358 7.85944 6.31272 7.99992 6.66634 7.99992H9.33301C9.68663 7.99992 10.0258 8.14039 10.2758 8.39044C10.5259 8.64049 10.6663 8.97963 10.6663 9.33325C10.6663 9.68687 10.5259 10.026 10.2758 10.2761C10.0258 10.5261 9.68663 10.6666 9.33301 10.6666H5.33301" stroke="white" stroke-width="1.33333" stroke-linecap="round" stroke-linejoin="round"/>
<path d="M8 11.6666V4.33325" stroke="white" stroke-width="1.33333" stroke-linecap="round" stroke-linejoin="round"/>
</svg>
